<svg id="svg" xmlns="http://www.w3.org/2000/svg" xmlns:xlink="http://www.w3.org/1999/xlink" width="400" height="400" viewBox="0, 0, 400,400"><g id="svgg"><path id="path0" d="M312.400 0.600 C 312.400 0.930,312.580 1.200,312.800 1.200 C 313.020 1.200,313.200 0.930,313.200 0.600 C 313.200 0.270,313.020 0.000,312.800 0.000 C 312.580 0.000,312.400 0.270,312.400 0.600 M39.212 0.784 C 38.888 0.989,38.727 1.261,38.854 1.388 C 39.169 1.703,40.400 1.201,40.400 0.757 C 40.400 0.301,39.960 0.311,39.212 0.784 M96.400 2.800 C 96.400 3.020,96.655 3.200,96.967 3.200 C 97.278 3.200,97.624 3.425,97.735 3.700 C 97.862 4.016,97.948 3.958,97.968 3.543 C 97.986 3.181,97.715 2.776,97.367 2.643 C 96.514 2.315,96.400 2.334,96.400 2.800 M328.800 3.200 C 328.483 3.396,328.356 3.689,328.518 3.852 C 328.681 4.014,329.023 3.937,329.280 3.680 C 329.884 3.076,329.547 2.738,328.800 3.200 M152.075 4.025 C 152.171 4.314,152.486 4.629,152.775 4.725 C 153.075 4.825,153.225 4.675,153.125 4.375 C 153.029 4.086,152.714 3.771,152.425 3.675 C 152.125 3.575,151.975 3.725,152.075 4.025 M140.900 4.598 C 140.230 5.359,140.253 5.400,141.336 5.400 C 142.031 5.400,142.226 5.219,142.090 4.700 C 141.871 3.863,141.570 3.837,140.900 4.598 M396.400 5.200 C 396.400 5.947,396.507 6.053,396.880 5.680 C 397.253 5.307,397.253 5.093,396.880 4.720 C 396.507 4.347,396.400 4.453,396.400 5.200 M147.500 5.510 C 147.115 5.592,146.800 5.804,146.800 5.983 C 146.800 6.518,148.300 6.740,148.766 6.274 C 149.620 5.420,149.177 5.153,147.500 5.510 M75.600 8.200 C 75.600 8.530,75.780 8.800,76.000 8.800 C 76.220 8.800,76.400 8.530,76.400 8.200 C 76.400 7.870,76.220 7.600,76.000 7.600 C 75.780 7.600,75.600 7.870,75.600 8.200 M135.600 9.800 C 135.600 10.130,135.780 10.400,136.000 10.400 C 136.220 10.400,136.400 10.130,136.400 9.800 C 136.400 9.470,136.220 9.200,136.000 9.200 C 135.780 9.200,135.600 9.470,135.600 9.800 M120.800 10.000 C 120.800 10.220,121.070 10.400,121.400 10.400 C 121.730 10.400,122.000 10.220,122.000 10.000 C 122.000 9.780,121.730 9.600,121.400 9.600 C 121.070 9.600,120.800 9.780,120.800 10.000 M341.900 11.233 C 341.230 11.967,341.235 12.000,342.000 12.000 C 342.533 12.000,342.800 11.733,342.800 11.200 C 342.800 10.252,342.796 10.252,341.900 11.233 M66.400 11.557 C 66.400 11.754,66.670 12.018,67.000 12.145 C 67.365 12.285,67.600 12.145,67.600 11.787 C 67.600 11.464,67.330 11.200,67.000 11.200 C 66.670 11.200,66.400 11.361,66.400 11.557 M77.200 11.800 C 77.200 12.130,77.380 12.400,77.600 12.400 C 77.820 12.400,78.000 12.130,78.000 11.800 C 78.000 11.470,77.820 11.200,77.600 11.200 C 77.380 11.200,77.200 11.470,77.200 11.800 M27.600 12.336 C 27.600 12.520,27.127 12.887,26.548 13.151 C 25.125 13.799,25.466 13.981,27.400 13.604 C 28.280 13.432,28.781 13.271,28.513 13.246 C 28.244 13.221,28.129 12.930,28.255 12.600 C 28.382 12.270,28.286 12.000,28.043 12.000 C 27.799 12.000,27.600 12.151,27.600 12.336 M311.200 13.200 C 310.715 13.514,310.772 13.589,311.500 13.594 C 311.995 13.597,312.400 13.420,312.400 13.200 C 312.400 12.699,311.976 12.699,311.200 13.200 M16.400 18.692 C 16.730 18.817,17.125 19.113,17.278 19.348 C 17.431 19.584,17.696 19.637,17.867 19.467 C 18.237 19.096,17.248 18.402,16.400 18.438 C 15.867 18.460,15.867 18.489,16.400 18.692 M291.666 19.951 C 291.267 20.204,291.363 20.349,292.049 20.529 C 293.093 20.802,293.398 20.644,293.016 20.027 C 292.701 19.516,292.380 19.498,291.666 19.951 M22.223 20.567 C 23.061 21.180,23.440 21.113,23.016 20.427 C 22.871 20.192,22.459 20.000,22.100 20.000 C 21.554 20.000,21.574 20.093,22.223 20.567 M366.000 20.400 C 366.000 20.620,366.270 20.800,366.600 20.800 C 366.930 20.800,367.200 20.620,367.200 20.400 C 367.200 20.180,366.930 20.000,366.600 20.000 C 366.270 20.000,366.000 20.180,366.000 20.400 M16.835 24.770 C 16.359 25.071,16.378 25.235,16.954 25.811 C 17.330 26.187,17.759 26.374,17.907 26.226 C 18.056 26.078,17.912 25.786,17.588 25.578 C 17.072 25.246,17.073 25.152,17.600 24.806 C 17.930 24.589,18.020 24.412,17.800 24.412 C 17.580 24.412,17.146 24.573,16.835 24.770 M9.212 25.984 C 8.888 26.189,8.745 26.479,8.894 26.628 C 9.260 26.994,10.400 26.528,10.400 26.013 C 10.400 25.505,9.986 25.495,9.212 25.984 M338.400 27.200 C 338.400 27.420,338.670 27.600,339.000 27.600 C 339.330 27.600,339.600 27.420,339.600 27.200 C 339.600 26.980,339.330 26.800,339.000 26.800 C 338.670 26.800,338.400 26.980,338.400 27.200 M10.400 27.600 C 10.400 27.820,10.670 28.000,11.000 28.000 C 11.330 28.000,11.600 27.820,11.600 27.600 C 11.600 27.380,11.330 27.200,11.000 27.200 C 10.670 27.200,10.400 27.380,10.400 27.600 M89.200 27.800 C 88.659 28.451,88.789 28.533,89.767 28.157 C 90.115 28.024,90.400 27.754,90.400 27.557 C 90.400 27.004,89.752 27.135,89.200 27.800 M388.800 29.400 C 388.392 29.891,388.420 30.000,388.951 30.000 C 389.308 30.000,389.600 29.730,389.600 29.400 C 389.600 29.070,389.532 28.800,389.449 28.800 C 389.366 28.800,389.074 29.070,388.800 29.400 M341.700 34.998 C 341.425 35.311,341.200 35.754,341.200 35.983 C 341.200 36.641,342.288 36.468,342.557 35.767 C 343.091 34.376,342.620 33.954,341.700 34.998 M361.348 35.792 C 361.010 36.672,361.381 36.946,361.962 36.245 C 362.290 35.851,362.307 35.589,362.017 35.410 C 361.784 35.267,361.483 35.438,361.348 35.792 M386.800 44.287 C 386.800 44.763,386.992 45.271,387.227 45.416 C 387.981 45.883,388.101 45.279,387.441 44.337 L 386.800 43.422 386.800 44.287 M388.800 45.000 C 388.800 45.330,388.980 45.600,389.200 45.600 C 389.420 45.600,389.600 45.330,389.600 45.000 C 389.600 44.670,389.420 44.400,389.200 44.400 C 388.980 44.400,388.800 44.670,388.800 45.000 M2.400 46.600 C 2.400 46.930,2.580 47.200,2.800 47.200 C 3.020 47.200,3.200 46.930,3.200 46.600 C 3.200 46.270,3.020 46.000,2.800 46.000 C 2.580 46.000,2.400 46.270,2.400 46.600 M64.400 46.400 C 64.400 46.620,64.670 46.800,65.000 46.800 C 65.330 46.800,65.600 46.620,65.600 46.400 C 65.600 46.180,65.330 46.000,65.000 46.000 C 64.670 46.000,64.400 46.180,64.400 46.400 M357.451 47.812 C 357.275 48.270,357.398 48.421,357.873 48.329 C 358.583 48.192,358.720 47.507,358.079 47.293 C 357.870 47.223,357.587 47.457,357.451 47.812 M24.000 49.000 C 24.000 49.330,24.180 49.600,24.400 49.600 C 24.620 49.600,24.800 49.330,24.800 49.000 C 24.800 48.670,24.620 48.400,24.400 48.400 C 24.180 48.400,24.000 48.670,24.000 49.000 M35.200 49.593 C 35.200 49.770,35.485 50.024,35.833 50.157 C 36.732 50.502,36.888 50.463,36.712 49.935 C 36.535 49.405,35.200 49.102,35.200 49.593 M4.800 51.000 C 4.800 51.330,4.980 51.600,5.200 51.600 C 5.420 51.600,5.600 51.330,5.600 51.000 C 5.600 50.670,5.420 50.400,5.200 50.400 C 4.980 50.400,4.800 50.670,4.800 51.000 M23.520 54.080 C 23.893 54.453,24.107 54.453,24.480 54.080 C 24.853 53.707,24.747 53.600,24.000 53.600 C 23.253 53.600,23.147 53.707,23.520 54.080 M58.591 58.880 C 56.836 60.683,56.210 61.448,57.200 60.580 C 59.017 58.985,62.241 55.600,61.943 55.600 C 61.854 55.600,60.345 57.076,58.591 58.880 M350.678 56.378 C 350.839 56.991,350.991 57.054,351.399 56.678 C 351.992 56.130,351.803 55.600,351.014 55.600 C 350.677 55.600,350.551 55.892,350.678 56.378 M13.228 57.900 C 13.253 58.875,13.295 58.909,13.600 58.200 C 14.069 57.107,14.069 56.800,13.600 56.800 C 13.380 56.800,13.213 57.295,13.228 57.900 M346.648 60.723 C 346.522 60.926,346.775 61.415,347.209 61.809 C 348.111 62.624,348.248 62.160,347.426 61.076 C 347.124 60.678,346.774 60.519,346.648 60.723 M369.833 61.057 C 369.499 61.930,369.943 62.336,370.416 61.588 C 370.889 60.840,370.899 60.400,370.443 60.400 C 370.246 60.400,369.972 60.696,369.833 61.057 M345.600 62.576 C 345.600 63.802,345.828 63.901,346.116 62.800 C 346.231 62.361,346.162 61.900,345.962 61.777 C 345.763 61.654,345.600 62.013,345.600 62.576 M384.000 65.559 C 384.000 66.179,385.529 66.763,385.736 66.222 C 385.866 65.883,385.582 65.613,384.972 65.497 C 384.437 65.395,384.000 65.423,384.000 65.559 M378.995 70.008 C 378.862 70.224,379.033 70.400,379.376 70.400 C 379.719 70.400,380.000 70.580,380.000 70.800 C 380.000 71.020,380.180 71.200,380.400 71.200 C 381.055 71.200,380.856 70.627,380.019 70.104 C 379.527 69.797,379.147 69.761,378.995 70.008 M358.274 75.237 C 358.064 76.040,358.087 76.045,358.828 75.375 C 359.746 74.543,359.779 74.400,359.047 74.400 C 358.742 74.400,358.395 74.777,358.274 75.237 M41.800 77.227 C 40.802 77.866,40.735 77.996,41.404 77.998 C 41.846 77.999,42.432 77.640,42.707 77.200 C 43.299 76.253,43.323 76.252,41.800 77.227 M20.000 80.800 C 20.000 81.020,20.495 81.197,21.100 81.194 C 21.957 81.189,22.068 81.102,21.600 80.800 C 20.817 80.294,20.000 80.294,20.000 80.800 M26.400 81.400 C 26.400 81.730,26.580 82.000,26.800 82.000 C 27.020 82.000,27.200 81.730,27.200 81.400 C 27.200 81.070,27.020 80.800,26.800 80.800 C 26.580 80.800,26.400 81.070,26.400 81.400 M371.606 81.500 C 371.610 81.932,371.725 82.031,371.906 81.760 C 372.068 81.518,372.470 81.217,372.800 81.092 C 373.201 80.939,373.101 80.853,372.500 80.832 C 371.895 80.810,371.602 81.030,371.606 81.500 M5.951 89.561 C 6.254 89.753,6.379 90.111,6.228 90.355 C 6.076 90.600,6.124 90.800,6.334 90.800 C 6.658 90.800,7.200 89.904,7.200 89.367 C 7.200 89.275,6.795 89.203,6.300 89.206 C 5.632 89.211,5.542 89.302,5.951 89.561 M392.800 89.524 C 392.800 89.739,393.085 90.024,393.433 90.157 C 393.823 90.307,394.006 90.218,393.908 89.925 C 393.709 89.327,392.800 88.998,392.800 89.524 M373.199 92.202 C 372.683 92.751,372.389 93.200,372.547 93.200 C 372.998 93.200,374.565 91.631,374.339 91.406 C 374.228 91.294,373.714 91.652,373.199 92.202 M170.400 94.387 C 147.608 97.306,130.406 117.182,130.403 140.600 C 130.400 163.493,142.489 181.813,165.548 193.859 C 170.188 196.283,170.171 196.571,165.380 196.715 C 153.541 197.070,135.619 193.709,124.000 188.954 C 98.438 178.493,82.921 153.538,81.323 120.316 L 81.078 115.231 79.039 114.838 C 77.918 114.622,76.235 114.329,75.300 114.187 L 73.600 113.930 73.600 199.765 L 73.600 285.600 74.700 285.581 C 75.305 285.571,76.970 285.345,78.400 285.079 L 81.000 284.596 81.456 278.998 C 82.410 267.294,84.876 255.061,87.436 249.340 C 87.746 248.646,88.000 247.956,88.000 247.807 C 88.000 247.115,90.684 241.537,92.691 238.055 C 105.427 215.963,129.037 204.081,162.500 202.922 C 170.562 202.643,171.063 202.852,167.100 204.846 C 145.056 215.934,132.716 232.493,130.735 253.648 C 128.106 281.719,148.810 305.357,176.000 305.328 C 196.289 305.306,213.823 294.410,237.052 267.387 C 238.181 266.074,240.957 262.840,243.220 260.200 C 275.640 222.387,293.587 209.102,323.800 200.554 C 327.079 199.626,327.177 199.412,324.586 198.832 C 304.309 194.294,284.192 182.206,264.977 163.015 C 256.671 154.719,255.244 153.163,244.051 140.200 C 222.470 115.206,212.520 106.151,199.914 100.031 C 190.244 95.335,179.315 93.246,170.400 94.387 M27.847 97.043 C 28.018 97.728,27.922 98.201,27.566 98.421 C 27.267 98.606,27.144 98.878,27.293 99.026 C 27.606 99.339,28.582 98.453,28.868 97.596 C 28.976 97.272,28.838 96.781,28.561 96.504 C 27.786 95.729,27.560 95.900,27.847 97.043 M23.484 106.000 C 23.369 106.440,23.417 106.800,23.591 106.800 C 23.765 106.800,24.001 106.440,24.116 106.000 C 24.231 105.560,24.183 105.200,24.009 105.200 C 23.835 105.200,23.599 105.560,23.484 106.000 M398.000 111.200 C 398.000 111.420,398.270 111.600,398.600 111.600 C 398.930 111.600,399.200 111.420,399.200 111.200 C 399.200 110.980,398.930 110.800,398.600 110.800 C 398.270 110.800,398.000 110.980,398.000 111.200 M19.784 111.900 C 19.942 112.428,19.883 112.800,19.640 112.800 C 19.412 112.800,19.329 113.070,19.455 113.400 C 19.782 114.252,20.301 114.143,20.614 113.155 C 20.790 112.602,20.646 112.085,20.198 111.655 C 19.560 111.044,19.532 111.060,19.784 111.900 M16.933 119.829 C 16.681 120.363,16.626 120.800,16.811 120.800 C 17.158 120.800,17.781 119.247,17.532 118.999 C 17.455 118.922,17.185 119.295,16.933 119.829 M397.600 120.400 C 397.600 120.620,397.859 120.800,398.176 120.800 C 398.493 120.800,398.864 120.620,399.000 120.400 C 399.136 120.180,398.877 120.000,398.424 120.000 C 397.971 120.000,397.600 120.180,397.600 120.400 M395.137 121.041 C 396.079 121.701,396.683 121.581,396.216 120.827 C 396.071 120.592,395.563 120.400,395.087 120.400 L 394.222 120.400 395.137 121.041 M396.501 124.904 C 396.668 125.403,398.800 126.098,398.800 125.653 C 398.800 125.500,398.249 125.167,397.575 124.913 C 396.672 124.572,396.390 124.570,396.501 124.904 M0.000 135.400 C 0.000 135.730,0.103 136.000,0.229 136.000 C 0.354 136.000,0.727 135.730,1.057 135.400 C 1.590 134.867,1.565 134.800,0.829 134.800 C 0.359 134.800,0.000 135.060,0.000 135.400 M10.133 136.571 C 10.385 137.105,10.655 137.478,10.732 137.401 C 10.981 137.153,10.358 135.600,10.011 135.600 C 9.826 135.600,9.881 136.037,10.133 136.571 M391.442 139.435 C 391.102 140.321,391.141 140.800,391.553 140.800 C 392.025 140.800,392.412 139.255,392.004 139.003 C 391.828 138.894,391.575 139.088,391.442 139.435 M394.846 139.100 C 394.821 139.375,394.485 139.605,394.100 139.612 C 393.451 139.623,393.454 139.655,394.130 140.049 C 395.011 140.561,395.336 140.316,395.082 139.331 C 394.978 138.929,394.872 138.825,394.846 139.100 M6.397 149.537 C 5.991 149.987,5.877 150.598,6.049 151.403 L 6.305 152.600 6.353 151.276 C 6.380 150.505,6.567 150.056,6.800 150.200 C 7.020 150.336,7.200 150.077,7.200 149.624 C 7.200 148.661,7.186 148.660,6.397 149.537 M5.106 155.940 C 5.200 156.581,5.080 157.227,4.838 157.376 C 4.316 157.699,4.247 159.200,4.755 159.200 C 5.255 159.200,5.740 155.580,5.299 155.139 C 5.080 154.920,5.003 155.239,5.106 155.940 M3.498 163.300 C 3.395 163.575,3.453 164.160,3.627 164.600 C 3.885 165.251,3.949 165.159,3.972 164.100 C 4.001 162.748,3.820 162.442,3.498 163.300 M3.067 165.867 C 2.648 166.285,2.755 168.000,3.200 168.000 C 3.420 168.000,3.600 167.460,3.600 166.800 C 3.600 165.557,3.519 165.415,3.067 165.867 M2.101 174.200 C 2.105 175.080,2.187 175.393,2.283 174.895 C 2.379 174.398,2.375 173.678,2.275 173.295 C 2.175 172.913,2.096 173.320,2.101 174.200 M1.304 178.805 C 1.280 179.940,1.421 180.710,1.631 180.581 C 2.086 180.300,2.126 176.800,1.674 176.800 C 1.494 176.800,1.328 177.702,1.304 178.805 M0.924 184.200 C 0.926 185.520,1.001 186.012,1.090 185.293 C 1.179 184.574,1.177 183.494,1.086 182.893 C 0.995 182.292,0.922 182.880,0.924 184.200 M0.333 192.500 C 0.260 194.095,0.298 198.730,0.417 202.800 L 0.635 210.200 0.717 199.900 C 0.797 190.002,0.611 186.427,0.333 192.500 M0.931 215.400 C 0.933 216.940,1.005 217.521,1.092 216.691 C 1.179 215.861,1.177 214.601,1.089 213.891 C 1.000 213.181,0.929 213.860,0.931 215.400 M1.276 220.700 C 1.245 221.525,1.393 222.470,1.604 222.800 C 1.877 223.227,1.990 222.793,1.994 221.300 C 2.001 218.924,1.361 218.390,1.276 220.700 M2.114 225.800 C 2.117 226.900,2.195 227.303,2.287 226.695 C 2.379 226.086,2.377 225.186,2.282 224.695 C 2.187 224.203,2.111 224.700,2.114 225.800 M2.501 229.400 C 2.505 230.280,2.587 230.593,2.683 230.095 C 2.779 229.598,2.775 228.878,2.675 228.495 C 2.575 228.113,2.496 228.520,2.501 229.400 M2.800 232.605 C 2.800 233.158,2.972 233.923,3.182 234.305 C 3.393 234.687,3.771 236.576,4.024 238.502 C 4.476 241.946,5.200 243.622,5.200 241.224 C 5.200 240.551,5.047 240.000,4.859 240.000 C 4.672 240.000,4.285 238.110,4.000 235.800 C 3.533 232.013,2.800 230.062,2.800 232.605 M5.069 243.367 C 4.906 243.789,4.960 244.320,5.187 244.547 C 5.414 244.774,5.621 245.419,5.646 245.980 C 5.672 246.541,5.767 246.725,5.859 246.389 C 6.152 245.306,5.412 242.474,5.069 243.367 M6.032 247.686 C 6.014 248.063,6.257 249.143,6.572 250.086 C 6.887 251.029,7.268 252.483,7.420 253.319 C 7.572 254.154,7.780 254.753,7.883 254.650 C 8.112 254.421,7.291 250.104,6.808 249.000 C 6.616 248.560,6.370 247.930,6.261 247.600 C 6.105 247.126,6.057 247.145,6.032 247.686 M8.209 255.305 C 8.045 255.693,8.095 256.233,8.319 256.505 C 9.047 257.385,9.362 259.996,8.745 260.028 C 8.445 260.044,8.560 260.197,9.000 260.368 C 9.440 260.540,9.803 260.842,9.806 261.040 C 9.809 261.238,9.920 261.580,10.051 261.800 C 10.671 262.839,10.822 264.540,10.323 264.856 C 9.918 265.113,9.943 265.189,10.432 265.194 C 11.234 265.202,12.186 266.938,11.858 267.794 C 11.720 268.152,11.777 268.338,11.984 268.210 C 12.191 268.082,12.479 268.613,12.624 269.389 C 12.770 270.165,13.049 270.800,13.245 270.800 C 13.787 270.800,13.668 271.906,13.100 272.135 C 12.789 272.261,12.852 272.349,13.268 272.368 C 13.674 272.388,14.040 272.873,14.201 273.603 C 14.346 274.265,14.606 274.720,14.777 274.614 C 15.096 274.417,13.621 269.568,13.130 269.195 C 12.981 269.082,12.637 268.092,12.365 266.995 C 12.093 265.898,11.749 264.910,11.600 264.800 C 11.451 264.690,11.107 263.702,10.835 262.605 C 10.563 261.508,10.205 260.518,10.039 260.405 C 9.873 260.292,9.460 258.940,9.122 257.400 C 8.691 255.435,8.419 254.810,8.209 255.305 M397.632 261.300 C 397.614 261.685,397.675 262.000,397.767 262.000 C 397.859 262.000,398.219 262.109,398.567 262.243 C 398.915 262.376,399.200 262.286,399.200 262.043 C 399.200 261.799,398.945 261.600,398.633 261.600 C 398.322 261.600,397.976 261.375,397.865 261.100 C 397.744 260.801,397.650 260.882,397.632 261.300 M15.115 275.018 C 14.968 275.166,14.997 275.582,15.181 275.943 C 15.551 276.672,16.513 278.887,16.596 279.200 C 16.625 279.310,16.953 280.097,17.324 280.949 C 17.696 281.801,18.000 282.656,18.000 282.849 C 18.000 283.042,18.180 283.200,18.400 283.200 C 18.620 283.200,18.800 283.447,18.800 283.749 C 18.800 284.249,24.171 295.153,25.314 296.974 C 27.349 300.215,28.000 301.452,28.000 302.078 C 28.000 302.475,28.150 302.800,28.333 302.800 C 28.721 302.800,31.200 306.524,31.200 307.107 C 31.200 307.324,31.459 307.717,31.776 307.980 C 32.093 308.243,32.251 308.723,32.127 309.046 C 31.989 309.405,32.111 309.588,32.441 309.516 C 32.750 309.450,33.043 309.813,33.127 310.365 C 33.239 311.107,33.355 311.200,33.630 310.765 C 33.904 310.332,33.989 310.323,33.994 310.723 C 34.004 311.621,41.445 322.000,42.078 322.000 C 42.255 322.000,42.402 322.225,42.403 322.500 C 42.405 322.775,43.047 323.675,43.829 324.500 C 44.611 325.325,45.135 326.000,44.994 326.000 C 44.854 326.000,45.292 326.554,45.969 327.231 C 46.646 327.908,47.200 328.687,47.200 328.963 C 47.200 329.239,47.652 329.707,48.205 330.003 C 48.927 330.389,49.153 330.774,49.008 331.370 C 48.898 331.827,48.911 331.973,49.039 331.695 C 49.361 330.992,54.628 336.735,54.507 337.658 C 54.452 338.083,54.614 338.293,54.911 338.179 C 55.574 337.924,62.178 344.589,61.826 345.158 C 61.676 345.401,61.743 345.600,61.976 345.600 C 62.209 345.600,62.400 345.390,62.400 345.132 C 62.400 344.875,63.708 345.910,65.307 347.432 C 66.906 348.955,69.089 350.920,70.158 351.800 C 73.367 354.442,74.264 355.402,74.098 356.016 C 73.962 356.516,73.999 356.514,74.351 356.007 C 74.699 355.505,74.936 355.581,75.903 356.507 C 76.530 357.108,77.259 357.600,77.522 357.600 C 77.785 357.600,78.000 357.745,78.000 357.923 C 78.000 358.101,78.732 358.776,79.627 359.423 C 80.521 360.070,81.466 360.792,81.727 361.026 C 81.987 361.261,83.190 362.116,84.400 362.928 C 85.610 363.739,87.050 364.760,87.600 365.196 C 88.150 365.632,88.825 365.992,89.100 365.995 C 89.375 365.998,89.605 366.135,89.611 366.300 C 89.617 366.465,90.336 367.041,91.209 367.579 C 92.082 368.118,92.899 368.883,93.025 369.279 C 93.151 369.676,93.432 370.000,93.651 370.000 C 93.869 370.000,93.936 369.820,93.800 369.600 C 93.333 368.844,94.209 369.201,95.296 370.209 C 95.894 370.763,96.479 371.210,96.596 371.201 C 96.977 371.170,99.383 372.482,100.100 373.110 C 100.485 373.448,100.800 373.542,100.800 373.320 C 100.800 372.844,96.433 370.000,95.702 370.000 C 95.426 370.000,95.200 369.842,95.200 369.649 C 95.200 369.455,94.660 369.073,94.000 368.800 C 93.340 368.527,92.800 368.167,92.800 368.000 C 92.800 367.833,92.260 367.473,91.600 367.200 C 90.940 366.927,90.400 366.557,90.400 366.378 C 90.400 366.200,90.041 365.940,89.602 365.801 C 89.164 365.662,88.577 365.334,88.300 365.074 C 88.022 364.813,86.716 363.881,85.397 363.002 C 84.079 362.123,82.804 361.223,82.563 361.002 C 82.323 360.781,81.522 360.150,80.784 359.600 C 80.046 359.050,77.651 357.160,75.464 355.400 C 73.276 353.640,71.225 352.020,70.907 351.800 C 68.927 350.431,53.805 335.568,50.740 331.978 C 49.717 330.780,47.778 328.450,46.431 326.800 C 45.084 325.150,43.745 323.530,43.455 323.200 C 42.648 322.283,38.313 316.449,36.771 314.205 C 36.017 313.108,35.187 311.982,34.926 311.703 C 34.666 311.424,34.338 310.836,34.199 310.398 C 34.060 309.959,33.790 309.600,33.600 309.600 C 33.410 309.600,33.140 309.241,33.001 308.802 C 32.862 308.364,32.510 307.767,32.220 307.477 C 31.749 307.006,31.292 306.237,29.232 302.451 C 28.919 301.876,28.425 301.167,28.132 300.875 C 27.840 300.583,27.491 299.907,27.357 299.372 C 27.223 298.837,26.975 298.400,26.805 298.400 C 26.636 298.400,26.260 297.815,25.971 297.100 C 25.682 296.385,25.335 295.710,25.199 295.600 C 24.755 295.240,20.400 286.289,20.400 285.738 C 20.400 285.442,20.227 285.200,20.016 285.200 C 19.805 285.200,19.416 284.480,19.153 283.600 C 18.889 282.720,18.550 282.000,18.400 282.000 C 18.250 282.000,17.898 281.235,17.619 280.300 C 17.340 279.365,16.978 278.510,16.816 278.400 C 16.653 278.290,16.264 277.424,15.952 276.475 C 15.639 275.526,15.263 274.871,15.115 275.018 M14.400 282.800 C 14.400 283.020,14.670 283.200,15.000 283.200 C 15.330 283.200,15.600 283.020,15.600 282.800 C 15.600 282.580,15.330 282.400,15.000 282.400 C 14.670 282.400,14.400 282.580,14.400 282.800 M381.600 284.200 C 381.600 284.530,381.703 284.800,381.829 284.800 C 381.954 284.800,382.327 284.530,382.657 284.200 C 383.190 283.667,383.165 283.600,382.429 283.600 C 381.959 283.600,381.600 283.860,381.600 284.200 M19.200 291.164 C 19.200 291.350,19.470 291.726,19.800 292.000 C 20.288 292.405,20.400 292.385,20.400 291.892 C 20.400 291.558,20.130 291.182,19.800 291.055 C 19.470 290.929,19.200 290.977,19.200 291.164 M390.100 296.265 C 389.424 296.538,389.464 297.200,390.157 297.200 C 390.464 297.200,390.818 296.930,390.945 296.600 C 391.180 295.987,390.983 295.909,390.100 296.265 M19.402 302.398 C 19.003 302.839,18.807 303.200,18.967 303.200 C 19.388 303.200,20.528 301.995,20.312 301.779 C 20.211 301.678,19.802 301.956,19.402 302.398 M392.800 305.600 C 392.800 305.820,393.070 306.000,393.400 306.000 C 393.730 306.000,394.000 305.820,394.000 305.600 C 394.000 305.380,393.730 305.200,393.400 305.200 C 393.070 305.200,392.800 305.380,392.800 305.600 M370.800 306.586 C 370.800 306.933,371.147 307.200,371.600 307.200 C 372.040 307.200,372.400 307.116,372.400 307.014 C 372.400 306.912,372.040 306.635,371.600 306.400 C 370.961 306.058,370.800 306.096,370.800 306.586 M4.988 308.420 C 4.607 309.035,5.128 309.432,5.642 308.918 C 5.929 308.631,5.936 308.407,5.662 308.239 C 5.439 308.100,5.135 308.182,4.988 308.420 M10.800 308.800 C 11.576 309.301,12.000 309.301,12.000 308.800 C 12.000 308.580,11.595 308.403,11.100 308.406 C 10.372 308.411,10.315 308.486,10.800 308.800 M360.744 320.757 C 361.241 321.072,362.800 320.917,362.800 320.553 C 362.800 320.469,362.215 320.403,361.500 320.406 C 360.616 320.410,360.374 320.523,360.744 320.757 M37.600 322.400 C 37.600 322.620,37.960 322.800,38.400 322.800 C 38.840 322.800,39.200 322.620,39.200 322.400 C 39.200 322.180,38.840 322.000,38.400 322.000 C 37.960 322.000,37.600 322.180,37.600 322.400 M358.400 323.200 C 358.400 323.420,358.670 323.600,359.000 323.600 C 359.330 323.600,359.600 323.420,359.600 323.200 C 359.600 322.980,359.330 322.800,359.000 322.800 C 358.670 322.800,358.400 322.980,358.400 323.200 M358.000 324.351 C 358.000 325.084,359.094 325.654,359.328 325.043 C 359.450 324.726,359.276 324.361,358.942 324.233 C 358.130 323.921,358.000 323.938,358.000 324.351 M23.200 329.000 C 23.200 329.330,23.380 329.600,23.600 329.600 C 23.820 329.600,24.000 329.330,24.000 329.000 C 24.000 328.670,23.820 328.400,23.600 328.400 C 23.380 328.400,23.200 328.670,23.200 329.000 M379.200 339.957 C 379.200 340.154,379.485 340.424,379.833 340.557 C 380.811 340.933,380.941 340.851,380.400 340.200 C 379.848 339.535,379.200 339.404,379.200 339.957 M20.898 341.700 C 21.096 342.300,22.884 343.258,23.187 342.925 C 23.304 342.796,23.172 342.609,22.893 342.510 C 22.614 342.410,22.132 342.075,21.821 341.764 C 21.123 341.066,20.679 341.035,20.898 341.700 M55.693 343.045 C 55.955 343.620,56.239 343.884,56.323 343.632 C 56.535 342.994,56.108 342.000,55.621 342.000 C 55.368 342.000,55.395 342.389,55.693 343.045 M353.600 342.400 C 353.600 342.620,353.870 342.800,354.200 342.800 C 354.530 342.800,354.800 342.620,354.800 342.400 C 354.800 342.180,354.530 342.000,354.200 342.000 C 353.870 342.000,353.600 342.180,353.600 342.400 M387.600 342.600 C 387.600 342.930,387.780 343.200,388.000 343.200 C 388.220 343.200,388.400 342.930,388.400 342.600 C 388.400 342.270,388.220 342.000,388.000 342.000 C 387.780 342.000,387.600 342.270,387.600 342.600 M338.455 343.733 C 338.127 344.129,338.140 344.272,338.506 344.286 C 338.778 344.296,339.360 344.429,339.800 344.580 C 340.428 344.796,340.404 344.737,339.687 344.307 C 339.186 344.005,338.901 343.633,339.054 343.479 C 339.208 343.326,339.235 343.200,339.116 343.200 C 338.996 343.200,338.699 343.440,338.455 343.733 M380.851 348.760 C 380.549 348.951,380.384 349.353,380.484 349.653 C 380.611 350.032,380.812 349.925,381.147 349.299 C 381.679 348.305,381.651 348.254,380.851 348.760 M36.000 354.400 C 36.000 354.620,36.270 354.800,36.600 354.800 C 36.930 354.800,37.200 354.620,37.200 354.400 C 37.200 354.180,36.930 354.000,36.600 354.000 C 36.270 354.000,36.000 354.180,36.000 354.400 M391.206 358.500 C 391.211 359.228,391.286 359.285,391.600 358.800 C 392.101 358.024,392.101 357.600,391.600 357.600 C 391.380 357.600,391.203 358.005,391.206 358.500 M392.492 361.675 C 392.579 361.936,392.864 362.221,393.125 362.308 C 393.418 362.406,393.507 362.223,393.357 361.833 C 393.078 361.106,392.252 360.955,392.492 361.675 M393.846 363.025 C 393.598 363.670,393.936 363.755,394.734 363.250 C 395.168 362.974,395.155 362.868,394.667 362.681 C 394.336 362.554,393.967 362.709,393.846 363.025 M312.850 364.868 C 312.272 365.794,314.119 365.661,315.000 364.713 C 315.280 364.411,315.170 364.364,314.632 364.555 C 314.210 364.705,313.753 364.648,313.618 364.430 C 313.482 364.209,313.140 364.405,312.850 364.868 M364.800 364.625 C 364.800 364.925,365.873 366.000,366.171 366.000 C 366.680 366.000,366.351 365.362,365.600 364.893 C 365.160 364.618,364.800 364.498,364.800 364.625 M322.800 367.200 C 322.800 367.420,323.070 367.600,323.400 367.600 C 323.730 367.600,324.000 367.420,324.000 367.200 C 324.000 366.980,323.730 366.800,323.400 366.800 C 323.070 366.800,322.800 366.980,322.800 367.200 M28.000 369.976 C 28.000 370.647,28.709 370.813,28.946 370.198 C 29.085 369.835,28.944 369.600,28.587 369.600 C 28.264 369.600,28.000 369.769,28.000 369.976 M101.200 373.367 C 101.200 373.598,103.836 375.154,107.100 376.852 C 108.695 377.681,110.000 378.210,110.000 378.028 C 110.000 377.846,109.415 377.458,108.700 377.165 C 107.985 376.873,107.162 376.401,106.871 376.117 C 106.581 375.833,106.099 375.600,105.800 375.600 C 105.501 375.600,105.019 375.375,104.729 375.100 C 104.163 374.565,101.200 373.110,101.200 373.367 M304.571 373.809 C 304.995 374.129,305.440 374.294,305.559 374.174 C 305.810 373.923,304.794 373.209,304.200 373.219 C 303.980 373.222,304.147 373.488,304.571 373.809 M21.000 374.400 C 20.864 374.620,21.134 374.800,21.600 374.800 C 22.066 374.800,22.336 374.620,22.200 374.400 C 22.064 374.180,21.794 374.000,21.600 374.000 C 21.406 374.000,21.136 374.180,21.000 374.400 M31.641 374.570 C 32.163 375.127,32.534 375.181,33.641 374.863 L 35.000 374.472 33.733 374.436 C 33.036 374.416,32.136 374.284,31.733 374.143 C 31.057 373.906,31.050 373.940,31.641 374.570 M111.233 378.994 C 111.801 379.303,112.521 379.610,112.833 379.678 C 113.145 379.745,113.490 379.911,113.600 380.047 C 114.183 380.768,117.392 381.968,117.758 381.602 C 118.027 381.333,117.968 381.200,117.579 381.200 C 117.259 381.200,115.699 380.570,114.111 379.800 C 111.349 378.460,109.085 377.826,111.233 378.994 M342.406 379.100 C 342.403 379.595,342.580 380.000,342.800 380.000 C 343.301 380.000,343.301 379.576,342.800 378.800 C 342.486 378.315,342.411 378.372,342.406 379.100 M323.467 379.467 C 322.981 379.953,323.190 380.379,323.800 380.145 C 324.130 380.018,324.400 379.754,324.400 379.557 C 324.400 379.138,323.849 379.084,323.467 379.467 M287.478 380.656 C 287.158 380.975,287.519 381.600,288.024 381.600 C 288.231 381.600,288.400 381.330,288.400 381.000 C 288.400 380.381,287.928 380.205,287.478 380.656 M378.157 381.033 C 378.291 381.381,378.403 381.786,378.406 381.933 C 378.414 382.291,379.186 381.083,379.194 380.700 C 379.197 380.535,378.911 380.400,378.557 380.400 C 378.135 380.400,377.998 380.618,378.157 381.033 M118.400 382.400 C 118.730 382.613,119.315 382.791,119.700 382.794 C 120.085 382.797,120.400 382.951,120.400 383.136 C 120.400 383.321,121.165 383.716,122.100 384.015 C 123.035 384.314,124.160 384.773,124.600 385.035 C 125.352 385.482,128.282 386.546,128.867 386.583 C 129.013 386.592,129.268 386.735,129.433 386.900 C 129.598 387.065,129.918 387.200,130.143 387.200 C 131.064 387.200,128.868 386.005,127.100 385.544 C 126.055 385.272,125.200 384.926,125.200 384.776 C 125.200 384.627,124.390 384.277,123.400 384.000 C 122.410 383.723,121.600 383.368,121.600 383.211 C 121.600 383.055,120.904 382.718,120.054 382.463 C 118.180 381.902,117.595 381.880,118.400 382.400 M277.027 383.959 C 276.601 384.126,276.423 384.367,276.631 384.496 C 276.839 384.624,277.356 384.475,277.781 384.165 C 278.610 383.559,278.279 383.469,277.027 383.959 M132.259 387.943 C 133.172 388.373,134.927 388.950,136.159 389.226 C 137.392 389.502,138.400 389.879,138.400 390.064 C 138.400 390.249,138.670 390.400,139.000 390.400 C 140.381 390.400,139.446 389.644,137.500 389.186 C 136.345 388.915,134.950 388.468,134.400 388.194 C 133.850 387.921,132.770 387.576,132.000 387.428 L 130.600 387.161 132.259 387.943 M113.188 389.414 C 112.912 389.747,112.802 390.135,112.943 390.276 C 113.084 390.418,113.200 390.337,113.200 390.096 C 113.200 389.855,113.515 389.596,113.900 389.520 C 114.358 389.429,114.443 389.282,114.145 389.095 C 113.895 388.938,113.465 389.081,113.188 389.414 M375.823 389.163 C 375.705 389.353,376.004 389.612,376.487 389.739 C 377.636 390.039,377.745 389.883,376.800 389.293 C 376.381 389.031,375.941 388.972,375.823 389.163 M295.895 389.877 C 295.507 389.978,295.283 390.210,295.396 390.393 C 295.653 390.809,297.200 390.432,297.200 389.953 C 297.200 389.584,297.052 389.575,295.895 389.877 M141.200 390.850 C 141.970 391.058,142.988 391.423,143.462 391.661 C 143.936 391.899,144.558 391.950,144.843 391.773 C 145.178 391.566,144.588 391.271,143.181 390.943 C 140.673 390.358,139.103 390.284,141.200 390.850 M272.893 391.200 C 273.362 391.951,274.000 392.280,274.000 391.771 C 274.000 391.473,272.925 390.400,272.625 390.400 C 272.498 390.400,272.618 390.760,272.893 391.200 M256.038 391.900 C 256.333 392.285,256.625 392.675,256.687 392.767 C 256.749 392.858,256.800 392.543,256.800 392.067 C 256.800 391.534,256.550 391.200,256.151 391.200 C 255.596 391.200,255.579 391.301,256.038 391.900 M290.006 391.900 C 290.003 392.395,290.180 392.800,290.400 392.800 C 290.901 392.800,290.901 392.376,290.400 391.600 C 290.086 391.115,290.011 391.172,290.006 391.900 M316.818 392.366 C 316.573 392.825,316.539 393.200,316.743 393.200 C 317.154 393.200,317.722 391.988,317.442 391.708 C 317.344 391.611,317.064 391.907,316.818 392.366 M148.000 392.690 C 148.330 392.793,148.771 393.040,148.980 393.239 C 149.493 393.726,150.800 393.699,150.800 393.200 C 150.800 392.980,150.553 392.800,150.250 392.800 C 149.947 392.800,149.183 392.733,148.550 392.652 C 147.917 392.570,147.670 392.588,148.000 392.690 M74.006 393.100 C 74.024 393.995,74.801 394.598,75.179 394.011 C 75.432 393.618,75.398 393.320,75.079 393.117 C 74.464 392.726,73.998 392.718,74.006 393.100 M99.200 393.596 C 99.200 394.354,99.239 394.359,100.000 393.707 C 100.440 393.330,100.800 392.972,100.800 392.911 C 100.800 392.850,100.440 392.800,100.000 392.800 C 99.468 392.800,99.200 393.067,99.200 393.596 M249.920 393.280 C 250.293 393.653,250.507 393.653,250.880 393.280 C 251.253 392.907,251.147 392.800,250.400 392.800 C 249.653 392.800,249.547 392.907,249.920 393.280 M141.606 393.500 C 141.609 393.665,141.780 394.065,141.984 394.388 C 142.445 395.117,142.986 394.661,142.662 393.817 C 142.423 393.194,141.595 392.945,141.606 393.500 M152.123 393.885 C 152.699 394.026,152.751 394.178,152.374 394.631 C 151.998 395.085,152.038 395.200,152.575 395.200 C 152.945 395.200,153.136 395.020,153.000 394.800 C 152.671 394.267,153.972 394.292,155.571 394.850 C 156.419 395.146,156.996 395.164,157.255 394.905 C 157.515 394.645,156.938 394.415,155.569 394.234 C 152.112 393.775,151.365 393.699,152.123 393.885 M328.400 394.233 C 328.400 394.582,328.614 394.795,328.875 394.708 C 329.617 394.461,329.740 393.600,329.033 393.600 C 328.685 393.600,328.400 393.885,328.400 394.233 M128.053 394.358 C 127.663 394.606,127.619 394.904,127.897 395.402 C 128.239 396.013,128.313 395.969,128.488 395.050 C 128.599 394.472,128.669 394.003,128.645 394.006 C 128.620 394.009,128.354 394.168,128.053 394.358 M151.357 396.633 C 151.491 396.981,151.603 397.386,151.606 397.533 C 151.614 397.891,152.386 396.683,152.394 396.300 C 152.397 396.135,152.111 396.000,151.757 396.000 C 151.335 396.000,151.198 396.218,151.357 396.633 M164.319 396.281 C 165.443 396.425,165.606 396.580,165.423 397.325 C 165.304 397.806,165.311 397.975,165.437 397.700 C 165.566 397.418,166.385 397.200,167.313 397.200 C 169.887 397.200,168.558 396.495,165.600 396.291 C 164.170 396.192,163.594 396.188,164.319 396.281 M235.200 396.153 C 235.200 396.238,235.650 396.393,236.200 396.498 C 236.750 396.603,237.200 396.534,237.200 396.345 C 237.200 396.155,236.750 396.000,236.200 396.000 C 235.650 396.000,235.200 396.069,235.200 396.153 M232.200 396.800 C 232.336 397.020,232.786 397.200,233.200 397.200 C 233.614 397.200,234.064 397.020,234.200 396.800 C 234.345 396.566,233.930 396.400,233.200 396.400 C 232.470 396.400,232.055 396.566,232.200 396.800 M169.905 397.483 C 170.402 397.579,171.122 397.575,171.505 397.475 C 171.887 397.375,171.480 397.296,170.600 397.301 C 169.720 397.305,169.407 397.387,169.905 397.483 M173.305 397.887 C 173.914 397.979,174.814 397.977,175.305 397.882 C 175.797 397.787,175.300 397.711,174.200 397.714 C 173.100 397.717,172.697 397.795,173.305 397.887 M225.100 397.882 C 225.595 397.978,226.405 397.978,226.900 397.882 C 227.395 397.787,226.990 397.709,226.000 397.709 C 225.010 397.709,224.605 397.787,225.100 397.882 M177.000 398.400 C 177.136 398.620,177.946 398.800,178.800 398.800 C 179.654 398.800,180.464 398.620,180.600 398.400 C 180.753 398.153,180.063 398.000,178.800 398.000 C 177.537 398.000,176.847 398.153,177.000 398.400 M219.710 398.800 C 219.743 399.240,220.002 399.600,220.285 399.600 C 220.568 399.600,220.755 399.375,220.700 399.100 C 220.638 398.792,220.944 398.648,221.493 398.724 C 221.984 398.792,222.704 398.663,223.093 398.436 C 223.644 398.115,223.343 398.022,221.725 398.012 C 219.893 398.001,219.657 398.094,219.710 398.800 M239.043 398.633 C 238.696 399.536,238.729 399.602,239.400 399.345 C 239.730 399.218,240.000 398.864,240.000 398.557 C 240.000 397.799,239.343 397.851,239.043 398.633 M173.206 398.700 C 173.224 399.577,173.988 400.159,173.994 399.300 C 173.997 398.805,173.820 398.400,173.600 398.400 C 173.380 398.400,173.203 398.535,173.206 398.700 M183.100 399.089 C 183.815 399.178,184.985 399.178,185.700 399.089 C 186.415 399.001,185.830 398.928,184.400 398.928 C 182.970 398.928,182.385 399.001,183.100 399.089 M213.800 399.093 C 214.240 399.203,214.735 399.497,214.900 399.746 C 215.123 400.083,215.278 400.080,215.501 399.736 C 215.667 399.481,216.342 399.193,217.001 399.096 C 217.661 398.999,217.030 398.914,215.600 398.906 C 214.170 398.899,213.360 398.983,213.800 399.093 M296.400 399.367 C 296.400 399.715,296.685 400.000,297.033 400.000 C 297.740 400.000,297.617 399.139,296.875 398.892 C 296.614 398.805,296.400 399.018,296.400 399.367 M194.700 399.499 C 197.615 399.567,202.385 399.567,205.300 399.499 C 208.215 399.431,205.830 399.375,200.000 399.375 C 194.170 399.375,191.785 399.431,194.700 399.499 " stroke="none" fill="#fbfbfb" fill-rule="evenodd"></path><path id="path1" d="M189.986 0.531 C 189.832 0.672,183.520 1.052,178.600 1.216 C 177.582 1.250,177.521 1.305,178.200 1.579 C 178.782 1.814,178.454 1.920,177.000 1.968 C 175.900 2.005,174.460 2.098,173.800 2.176 C 173.140 2.254,171.300 2.451,169.711 2.615 C 168.079 2.783,166.924 3.076,167.055 3.289 C 167.183 3.496,166.953 3.621,166.544 3.567 C 166.135 3.514,165.170 3.584,164.400 3.724 C 162.857 4.005,160.094 4.361,159.276 4.385 C 158.988 4.393,158.863 4.579,158.998 4.797 C 159.136 5.020,158.839 5.176,158.322 5.153 C 157.466 5.113,155.709 5.341,153.800 5.739 C 153.360 5.831,152.234 6.033,151.298 6.188 C 150.362 6.344,149.698 6.635,149.822 6.835 C 149.946 7.036,149.736 7.200,149.356 7.200 C 147.481 7.200,143.549 8.122,144.055 8.443 C 144.448 8.692,144.322 8.798,143.600 8.824 C 142.675 8.858,141.940 8.987,140.400 9.384 C 140.070 9.469,139.474 9.553,139.076 9.569 C 138.678 9.586,138.453 9.762,138.575 9.960 C 138.787 10.302,134.968 11.465,134.270 11.272 C 134.089 11.221,134.055 11.365,134.194 11.590 C 134.333 11.816,134.122 12.027,133.724 12.061 C 132.403 12.172,132.204 12.219,131.700 12.534 C 131.425 12.706,131.041 12.749,130.847 12.629 C 130.653 12.509,130.025 12.780,129.451 13.231 C 128.877 13.683,128.226 13.940,128.004 13.802 C 127.782 13.665,127.600 13.743,127.600 13.976 C 127.600 14.209,127.255 14.400,126.833 14.400 C 126.412 14.400,125.976 14.625,125.865 14.900 C 125.712 15.279,125.656 15.282,125.632 14.913 C 125.614 14.644,125.331 14.528,125.002 14.654 C 124.674 14.781,124.496 15.032,124.608 15.212 C 124.719 15.393,123.792 15.753,122.547 16.011 C 120.966 16.339,120.452 16.587,120.842 16.834 C 121.278 17.111,121.225 17.202,120.600 17.255 C 119.807 17.321,119.279 17.418,118.700 17.604 C 118.155 17.779,117.607 17.899,117.100 17.956 C 116.731 17.998,116.744 18.104,117.153 18.363 C 117.629 18.664,116.310 19.225,114.771 19.377 C 114.646 19.390,114.220 19.723,113.825 20.118 C 113.430 20.513,112.907 20.769,112.662 20.687 C 112.417 20.606,111.860 20.872,111.423 21.279 C 110.986 21.687,110.387 21.927,110.093 21.814 C 109.799 21.702,109.652 21.760,109.766 21.945 C 109.880 22.130,109.259 22.516,108.387 22.804 C 107.514 23.092,106.800 23.465,106.800 23.633 C 106.800 23.801,106.170 24.146,105.400 24.400 C 104.630 24.654,104.000 25.014,104.000 25.200 C 104.000 25.386,103.370 25.746,102.600 26.000 C 101.830 26.254,101.200 26.594,101.200 26.756 C 101.200 26.918,100.570 27.298,99.800 27.600 C 99.030 27.902,98.400 28.274,98.400 28.426 C 98.400 28.688,96.103 29.785,95.533 29.795 C 95.387 29.798,95.117 29.964,94.933 30.164 C 94.736 30.380,94.829 30.395,95.162 30.202 C 95.535 29.986,95.630 30.028,95.445 30.327 C 95.292 30.575,94.448 30.972,93.571 31.208 C 92.694 31.444,92.070 31.790,92.186 31.977 C 92.392 32.310,91.277 32.984,90.712 32.867 C 90.554 32.835,90.232 33.166,89.998 33.604 C 89.764 34.042,89.303 34.400,88.973 34.400 C 88.644 34.400,88.278 34.652,88.160 34.961 C 87.960 35.482,86.583 36.142,85.900 36.043 C 85.735 36.019,85.600 36.251,85.600 36.557 C 85.600 36.864,85.321 37.222,84.979 37.353 C 84.571 37.509,84.444 37.422,84.609 37.095 C 84.747 36.823,84.603 36.912,84.290 37.294 C 83.977 37.675,83.604 37.870,83.460 37.727 C 83.317 37.584,83.200 37.771,83.200 38.143 C 83.200 38.515,82.750 38.991,82.200 39.200 C 81.650 39.409,81.200 39.760,81.200 39.980 C 81.200 40.527,78.977 41.636,78.587 41.284 C 78.413 41.128,78.396 41.217,78.549 41.482 C 78.714 41.770,78.376 42.251,77.713 42.673 C 77.101 43.062,76.456 43.610,76.280 43.890 C 76.104 44.171,75.609 44.400,75.180 44.400 C 74.751 44.400,74.400 44.649,74.400 44.954 C 74.400 45.404,73.216 46.454,72.198 46.906 C 72.082 46.958,70.704 48.209,69.136 49.688 C 67.567 51.166,66.102 52.263,65.880 52.126 C 65.658 51.989,65.585 52.052,65.718 52.267 C 66.007 52.735,64.583 54.050,64.200 53.667 C 64.054 53.520,63.993 53.580,64.067 53.800 C 64.226 54.278,54.346 64.249,53.870 64.090 C 53.689 64.030,53.637 64.136,53.755 64.327 C 54.054 64.811,51.424 67.283,51.010 66.907 C 50.824 66.738,50.808 66.836,50.975 67.125 C 51.322 67.727,50.088 69.302,49.537 68.961 C 49.341 68.840,49.229 68.889,49.289 69.070 C 49.400 69.408,47.558 72.005,46.293 73.294 C 45.025 74.585,37.200 85.231,37.200 85.664 C 37.200 85.896,36.967 85.996,36.682 85.887 C 36.387 85.774,36.141 85.991,36.111 86.391 C 36.057 87.102,33.654 90.887,33.100 91.133 C 32.935 91.207,32.800 91.414,32.800 91.593 C 32.800 91.773,32.090 93.063,31.223 94.460 C 26.199 102.551,17.210 119.866,17.198 121.475 C 17.196 121.654,16.916 122.334,16.576 122.988 C 15.730 124.610,13.600 129.965,13.600 130.470 C 13.600 130.695,13.341 131.446,13.025 132.140 C 12.034 134.311,8.400 145.697,8.400 146.630 C 8.400 146.950,8.229 147.523,8.020 147.905 C 7.616 148.643,6.438 153.725,5.216 160.000 C 4.809 162.090,4.374 164.070,4.249 164.400 C 4.124 164.730,3.730 167.250,3.372 170.000 C 3.015 172.750,2.570 176.080,2.384 177.400 C -0.229 195.949,1.642 225.455,6.772 246.600 C 7.809 250.877,10.275 259.568,11.425 263.000 C 14.758 272.953,22.645 290.544,27.027 297.800 C 27.558 298.680,28.220 299.850,28.498 300.400 C 29.079 301.551,29.351 301.982,33.925 309.000 C 35.789 311.860,38.864 316.255,40.757 318.766 C 42.651 321.278,44.551 323.798,44.979 324.366 C 55.663 338.539,77.105 357.575,94.800 368.600 C 95.570 369.079,96.740 369.813,97.400 370.229 C 98.060 370.645,98.960 371.190,99.400 371.440 C 120.585 383.464,138.880 390.402,161.600 395.027 C 166.083 395.940,168.469 396.321,177.600 397.585 C 180.094 397.931,193.918 398.702,200.600 398.869 C 204.221 398.960,218.639 398.135,222.952 397.590 C 228.706 396.863,234.281 396.013,237.400 395.386 C 243.452 394.171,249.805 392.728,252.600 391.934 C 258.817 390.169,262.233 389.124,262.847 388.801 C 263.203 388.613,264.283 388.250,265.247 387.994 C 266.211 387.738,267.540 387.297,268.200 387.014 C 268.860 386.732,270.930 385.929,272.800 385.230 C 274.670 384.530,276.830 383.673,277.600 383.325 C 278.370 382.977,279.720 382.366,280.600 381.967 C 281.480 381.569,283.415 380.693,284.901 380.021 C 286.387 379.350,287.767 378.800,287.968 378.800 C 288.169 378.800,288.393 378.665,288.467 378.500 C 288.540 378.335,289.680 377.662,291.000 377.005 C 295.042 374.993,303.392 370.278,303.533 369.929 C 303.607 369.748,303.810 369.600,303.985 369.600 C 304.636 369.600,312.111 364.791,316.919 361.279 C 321.529 357.911,328.759 352.170,330.692 350.343 C 331.623 349.463,332.572 348.859,332.802 349.001 C 333.032 349.143,333.170 349.104,333.110 348.913 C 332.958 348.435,348.722 332.863,349.058 333.160 C 349.207 333.292,349.198 333.174,349.039 332.897 C 348.870 332.603,349.009 332.295,349.375 332.154 C 349.719 332.022,350.006 331.709,350.014 331.457 C 350.035 330.807,354.006 326.578,354.472 326.710 C 354.685 326.770,354.740 326.626,354.593 326.389 C 354.447 326.153,354.783 325.537,355.339 325.021 C 355.895 324.506,356.242 323.975,356.109 323.842 C 355.976 323.709,356.071 323.600,356.321 323.600 C 356.570 323.600,357.043 323.105,357.371 322.500 C 357.699 321.895,357.982 321.580,358.000 321.800 C 358.017 322.020,358.291 321.602,358.608 320.872 C 358.926 320.141,359.373 319.660,359.602 319.802 C 359.832 319.943,359.977 319.911,359.925 319.730 C 359.803 319.305,360.671 317.739,361.530 316.835 C 361.899 316.447,362.432 315.786,362.715 315.365 C 362.998 314.944,363.105 314.853,362.953 315.162 C 362.773 315.528,362.837 315.624,363.138 315.438 C 363.392 315.281,363.600 314.810,363.600 314.390 C 363.600 313.971,363.984 313.422,364.454 313.171 C 365.136 312.806,365.197 312.643,364.754 312.363 C 364.340 312.101,364.329 312.011,364.710 312.006 C 364.990 312.003,365.395 311.539,365.609 310.976 C 365.823 310.413,366.179 310.063,366.399 310.200 C 366.620 310.336,366.800 310.167,366.800 309.824 C 366.800 309.481,366.991 309.200,367.224 309.200 C 367.457 309.200,367.552 309.047,367.436 308.859 C 367.320 308.671,367.503 308.176,367.842 307.759 C 368.182 307.342,368.328 307.253,368.168 307.562 C 367.975 307.934,368.034 308.026,368.345 307.834 C 368.602 307.675,368.713 307.382,368.590 307.184 C 368.364 306.818,369.444 304.400,369.834 304.400 C 369.951 304.400,369.918 304.625,369.759 304.900 C 369.592 305.190,369.624 305.260,369.836 305.067 C 370.036 304.883,370.209 304.613,370.220 304.467 C 370.289 303.520,370.926 302.431,371.281 302.650 C 371.523 302.799,371.625 302.675,371.520 302.359 C 371.419 302.056,371.530 301.587,371.768 301.317 C 372.746 300.209,373.048 299.780,373.119 299.400 C 373.160 299.180,373.432 298.721,373.724 298.381 C 374.015 298.040,374.193 297.578,374.118 297.353 C 374.043 297.128,374.346 296.524,374.791 296.011 C 375.236 295.498,375.600 294.854,375.600 294.582 C 375.600 294.309,375.842 293.993,376.138 293.879 C 376.434 293.766,376.906 292.850,377.188 291.844 C 377.469 290.838,377.835 290.098,378.000 290.200 C 378.165 290.302,378.525 289.582,378.800 288.600 C 379.075 287.618,379.447 286.905,379.627 287.016 C 379.806 287.128,380.258 286.134,380.629 284.809 C 381.001 283.484,381.459 282.400,381.647 282.400 C 381.835 282.400,382.196 281.575,382.450 280.567 C 382.704 279.558,383.036 278.935,383.189 279.182 C 383.341 279.429,383.690 278.631,383.963 277.410 C 384.236 276.189,384.599 275.276,384.769 275.381 C 384.940 275.486,385.300 274.586,385.569 273.381 C 385.839 272.176,386.226 271.293,386.430 271.418 C 386.633 271.544,386.822 271.457,386.850 271.224 C 386.913 270.690,387.076 270.031,387.178 269.900 C 387.220 269.845,387.321 269.304,387.400 268.699 C 387.480 268.093,387.828 267.315,388.173 266.970 C 388.518 266.625,388.800 266.009,388.800 265.602 C 388.800 264.359,389.713 260.823,389.990 260.994 C 390.132 261.082,390.480 260.040,390.761 258.678 C 391.042 257.317,391.426 256.107,391.615 255.991 C 391.803 255.875,392.055 255.244,392.174 254.590 C 392.294 253.935,392.501 252.950,392.633 252.400 C 392.766 251.850,392.869 251.081,392.862 250.691 C 392.854 250.302,393.018 250.087,393.224 250.215 C 393.431 250.343,393.614 250.122,393.631 249.724 C 393.663 248.954,393.780 248.242,394.242 246.000 C 394.401 245.230,394.493 244.240,394.447 243.800 C 394.378 243.137,394.435 243.103,394.776 243.600 C 395.142 244.133,395.190 244.133,395.207 243.600 C 395.224 243.062,395.503 240.983,396.199 236.204 C 396.327 235.327,396.604 234.436,396.816 234.224 C 397.027 234.013,397.197 233.651,397.194 233.420 C 397.191 233.189,397.013 233.270,396.800 233.600 C 396.465 234.119,396.411 234.110,396.406 233.533 C 396.403 233.167,396.565 232.807,396.766 232.733 C 397.140 232.597,397.454 230.639,397.846 226.002 C 397.967 224.572,398.217 223.220,398.403 222.996 C 399.690 221.445,399.697 179.332,398.411 176.856 C 398.224 176.495,397.854 173.950,397.590 171.200 C 397.325 168.450,396.972 166.020,396.805 165.800 C 396.638 165.580,396.290 163.870,396.031 162.000 C 395.773 160.130,395.316 157.700,395.015 156.600 C 394.714 155.500,394.263 153.520,394.013 152.200 C 393.763 150.880,393.401 149.440,393.208 149.000 C 393.015 148.560,392.641 147.210,392.376 146.000 C 392.112 144.790,391.762 143.620,391.600 143.400 C 391.438 143.180,391.075 142.010,390.794 140.800 C 390.514 139.590,390.173 138.510,390.037 138.400 C 389.901 138.290,389.489 137.120,389.121 135.800 C 388.190 132.457,386.515 127.955,386.016 127.456 C 385.787 127.227,385.600 126.660,385.600 126.196 C 385.600 125.733,385.336 125.004,385.013 124.576 C 384.690 124.149,384.420 123.580,384.413 123.310 C 384.406 123.041,383.860 121.641,383.200 120.200 C 382.540 118.759,382.000 117.404,382.000 117.190 C 382.000 116.975,381.820 116.800,381.600 116.800 C 381.380 116.800,381.200 116.553,381.200 116.251 C 381.200 115.632,376.852 106.710,376.400 106.400 C 376.239 106.290,375.972 105.750,375.807 105.200 C 375.641 104.650,375.264 103.923,374.968 103.585 C 374.672 103.247,374.151 102.347,373.809 101.585 C 373.161 100.140,372.735 99.402,371.400 97.410 C 370.960 96.754,370.420 95.903,370.200 95.520 C 368.198 92.034,366.607 89.600,366.332 89.600 C 366.149 89.600,366.000 89.410,366.000 89.177 C 366.000 88.364,358.509 78.000,357.922 78.000 C 357.745 78.000,357.600 77.799,357.600 77.553 C 357.600 77.307,357.055 76.452,356.390 75.653 C 355.724 74.854,354.599 73.501,353.890 72.647 C 353.180 71.793,352.150 70.557,351.600 69.901 C 348.743 66.493,340.020 57.379,336.764 54.400 C 334.720 52.530,332.689 50.595,332.252 50.100 C 331.814 49.605,331.316 49.200,331.146 49.200 C 330.976 49.200,330.409 48.795,329.887 48.300 C 329.364 47.805,328.161 46.770,327.213 46.000 C 326.265 45.230,324.905 44.105,324.192 43.500 C 323.478 42.895,322.801 42.400,322.686 42.400 C 322.480 42.400,320.160 40.463,318.733 39.100 C 318.330 38.715,317.900 38.400,317.779 38.400 C 317.657 38.400,316.137 37.410,314.400 36.200 C 312.663 34.990,311.068 34.000,310.854 34.000 C 310.641 34.000,310.407 33.865,310.333 33.700 C 310.153 33.294,307.635 31.489,306.400 30.880 C 305.850 30.609,304.590 29.854,303.600 29.202 C 302.610 28.550,301.354 27.821,300.808 27.583 C 300.263 27.345,299.723 27.026,299.608 26.875 C 299.122 26.232,284.524 18.800,283.749 18.800 C 283.447 18.800,283.200 18.640,283.200 18.444 C 283.200 18.248,282.390 17.849,281.400 17.557 C 280.410 17.265,279.600 16.913,279.600 16.777 C 279.600 16.640,278.835 16.276,277.900 15.968 C 276.965 15.661,275.580 15.093,274.822 14.708 C 274.065 14.322,272.850 13.896,272.122 13.759 C 271.395 13.623,270.800 13.364,270.800 13.184 C 270.800 13.004,269.810 12.636,268.600 12.365 C 267.390 12.094,266.400 11.737,266.400 11.572 C 266.400 11.406,265.709 11.154,264.864 11.011 C 264.019 10.868,262.875 10.516,262.322 10.229 C 261.769 9.942,260.345 9.480,259.158 9.201 C 257.971 8.923,256.820 8.562,256.600 8.400 C 256.141 8.062,252.619 7.197,251.291 7.097 C 250.801 7.060,250.400 6.910,250.400 6.765 C 250.400 6.619,248.735 6.193,246.700 5.818 C 244.665 5.443,242.640 4.978,242.200 4.785 C 241.168 4.333,235.102 3.298,229.000 2.533 C 226.360 2.202,223.570 1.774,222.800 1.583 C 220.043 0.895,190.618 -0.047,189.986 0.531 M182.903 94.208 C 200.410 96.805,216.045 107.355,235.356 129.600 C 239.859 134.786,240.141 135.111,249.642 145.999 C 255.642 152.876,263.153 160.948,266.342 163.948 C 267.364 164.909,269.280 166.726,270.600 167.984 C 272.772 170.055,277.194 173.797,282.003 177.634 C 292.692 186.164,311.432 195.408,323.247 197.978 C 326.704 198.730,328.936 200.394,326.500 200.402 C 322.385 200.417,304.964 207.279,295.877 212.465 C 281.967 220.402,264.895 235.455,250.358 252.600 C 249.612 253.480,248.904 254.290,248.786 254.400 C 248.480 254.684,241.635 262.638,240.213 264.361 C 214.868 295.082,194.466 307.358,171.800 305.524 C 149.236 303.698,131.112 284.423,130.120 261.195 C 129.100 237.337,141.748 217.396,165.702 205.094 L 169.000 203.400 167.400 203.265 C 166.520 203.190,162.560 203.339,158.600 203.595 C 120.683 206.045,96.762 222.252,86.857 252.200 C 84.132 260.441,82.703 268.632,81.782 281.301 C 81.553 284.462,81.444 284.821,80.664 284.992 C 76.832 285.829,73.799 286.323,73.526 286.155 C 73.347 286.044,73.200 247.150,73.200 199.725 L 73.200 113.497 75.569 113.765 C 80.318 114.302,81.386 114.814,81.506 116.615 C 83.573 147.488,93.333 169.464,109.927 180.612 C 110.737 181.156,112.120 182.082,113.000 182.670 C 124.428 190.300,140.887 194.947,160.305 196.028 C 169.685 196.550,170.093 196.491,167.000 195.062 C 151.481 187.893,138.805 174.923,133.475 160.762 C 119.954 124.833,146.688 88.835,182.903 94.208 " stroke="none" fill="#434343" fill-rule="evenodd"></path><path id="path2" d="M143.578 107.500 L 142.200 109.000 143.700 107.622 C 145.096 106.338,145.384 106.000,145.078 106.000 C 145.012 106.000,144.337 106.675,143.578 107.500 M138.800 113.200 C 138.330 113.860,138.036 114.400,138.146 114.400 C 138.256 114.400,138.730 113.860,139.200 113.200 C 139.670 112.540,139.964 112.000,139.854 112.000 C 139.744 112.000,139.270 112.540,138.800 113.200 M73.383 114.100 C 73.278 114.375,73.240 123.690,73.300 134.800 L 73.408 155.000 73.504 134.533 C 73.579 118.607,73.711 114.022,74.100 113.865 C 74.492 113.707,74.489 113.656,74.087 113.632 C 73.806 113.614,73.489 113.825,73.383 114.100 M220.800 115.000 C 221.546 115.770,222.247 116.400,222.357 116.400 C 222.467 116.400,221.946 115.770,221.200 115.000 C 220.454 114.230,219.753 113.600,219.643 113.600 C 219.533 113.600,220.054 114.230,220.800 115.000 M81.301 121.000 C 81.305 121.880,81.387 122.193,81.483 121.695 C 81.579 121.198,81.575 120.478,81.475 120.095 C 81.375 119.713,81.296 120.120,81.301 121.000 M227.983 122.100 C 228.964 123.145,229.819 124.000,229.883 124.000 C 230.184 124.000,229.866 123.641,228.100 121.983 L 226.200 120.200 227.983 122.100 M81.701 125.400 C 81.705 126.280,81.787 126.593,81.883 126.095 C 81.979 125.598,81.975 124.878,81.875 124.495 C 81.775 124.113,81.696 124.520,81.701 125.400 M232.600 127.200 C 233.459 128.080,234.252 128.800,234.362 128.800 C 234.472 128.800,233.859 128.080,233.000 127.200 C 232.141 126.320,231.348 125.600,231.238 125.600 C 231.128 125.600,231.741 126.320,232.600 127.200 M130.148 140.800 C 130.148 143.110,130.214 144.055,130.295 142.900 C 130.376 141.745,130.376 139.855,130.295 138.700 C 130.214 137.545,130.148 138.490,130.148 140.800 M130.501 147.400 C 130.505 148.280,130.587 148.593,130.683 148.095 C 130.779 147.598,130.775 146.878,130.675 146.495 C 130.575 146.113,130.496 146.520,130.501 147.400 M6.679 150.700 C 6.369 151.253,5.932 153.402,6.180 153.154 C 6.477 152.856,7.205 150.400,6.996 150.400 C 6.914 150.400,6.771 150.535,6.679 150.700 M261.600 159.800 C 263.460 161.670,265.072 163.200,265.182 163.200 C 265.292 163.200,263.860 161.670,262.000 159.800 C 260.140 157.930,258.528 156.400,258.418 156.400 C 258.308 156.400,259.740 157.930,261.600 159.800 M268.000 166.200 C 269.417 167.630,270.667 168.800,270.777 168.800 C 270.887 168.800,269.817 167.630,268.400 166.200 C 266.983 164.770,265.733 163.600,265.623 163.600 C 265.513 163.600,266.583 164.770,268.000 166.200 M2.800 168.600 C 2.800 168.930,2.980 169.200,3.200 169.200 C 3.420 169.200,3.600 168.930,3.600 168.600 C 3.600 168.270,3.420 168.000,3.200 168.000 C 2.980 168.000,2.800 168.270,2.800 168.600 M272.800 170.600 C 273.546 171.370,274.247 172.000,274.357 172.000 C 274.467 172.000,273.946 171.370,273.200 170.600 C 272.454 169.830,271.753 169.200,271.643 169.200 C 271.533 169.200,272.054 169.830,272.800 170.600 M100.000 172.110 C 100.000 172.171,101.395 173.566,103.100 175.210 L 106.200 178.200 103.210 175.100 C 100.433 172.221,100.000 171.817,100.000 172.110 M1.500 180.631 C 1.335 180.797,1.200 181.299,1.200 181.747 C 1.200 182.335,1.321 182.439,1.638 182.122 C 1.878 181.882,2.013 181.380,1.938 181.007 C 1.862 180.633,1.665 180.464,1.500 180.631 M0.914 188.200 C 0.917 189.300,0.995 189.703,1.087 189.095 C 1.179 188.486,1.177 187.586,1.082 187.095 C 0.987 186.603,0.911 187.100,0.914 188.200 M156.305 196.283 C 156.802 196.379,157.522 196.375,157.905 196.275 C 158.287 196.175,157.880 196.096,157.000 196.101 C 156.120 196.105,155.807 196.187,156.305 196.283 M161.300 196.694 C 162.345 196.776,164.055 196.776,165.100 196.694 C 166.145 196.612,165.290 196.544,163.200 196.544 C 161.110 196.544,160.255 196.612,161.300 196.694 M160.100 203.087 C 160.705 203.178,161.695 203.178,162.300 203.087 C 162.905 202.995,162.410 202.920,161.200 202.920 C 159.990 202.920,159.495 202.995,160.100 203.087 M154.705 203.483 C 155.202 203.579,155.922 203.575,156.305 203.475 C 156.687 203.375,156.280 203.296,155.400 203.301 C 154.520 203.305,154.207 203.387,154.705 203.483 M0.909 211.200 C 0.909 212.190,0.987 212.595,1.082 212.100 C 1.178 211.605,1.178 210.795,1.082 210.300 C 0.987 209.805,0.909 210.210,0.909 211.200 M117.900 213.429 C 116.405 214.240,116.496 214.578,118.000 213.800 C 118.660 213.459,119.200 213.094,119.200 212.990 C 119.200 212.732,119.157 212.747,117.900 213.429 M1.301 215.400 C 1.305 216.280,1.387 216.593,1.483 216.095 C 1.579 215.598,1.575 214.878,1.475 214.495 C 1.375 214.113,1.296 214.520,1.301 215.400 M1.200 218.176 C 1.200 218.739,1.380 219.200,1.600 219.200 C 1.820 219.200,2.000 218.851,2.000 218.424 C 2.000 217.997,1.820 217.536,1.600 217.400 C 1.373 217.260,1.200 217.596,1.200 218.176 M102.185 225.300 L 100.200 227.400 102.300 225.415 C 103.455 224.323,104.400 223.378,104.400 223.315 C 104.400 223.017,104.029 223.349,102.185 225.300 M271.375 230.100 L 270.200 231.400 271.500 230.225 C 272.712 229.130,272.984 228.800,272.675 228.800 C 272.606 228.800,272.021 229.385,271.375 230.100 M2.806 230.500 C 2.803 231.105,2.980 231.600,3.200 231.600 C 3.706 231.600,3.706 230.783,3.200 230.000 C 2.898 229.532,2.811 229.643,2.806 230.500 M258.181 243.300 L 256.600 245.000 258.300 243.419 C 259.881 241.948,260.184 241.600,259.881 241.600 C 259.816 241.600,259.051 242.365,258.181 243.300 M6.236 247.466 C 6.613 249.065,7.101 249.471,6.886 248.008 C 6.788 247.338,6.541 246.687,6.338 246.562 C 6.122 246.428,6.079 246.805,6.236 247.466 M130.501 253.400 C 130.505 254.280,130.587 254.593,130.683 254.095 C 130.779 253.598,130.775 252.878,130.675 252.495 C 130.575 252.113,130.496 252.520,130.501 253.400 M7.732 252.967 C 7.879 253.351,8.000 254.021,8.000 254.456 C 8.000 254.891,8.156 255.151,8.346 255.033 C 8.788 254.760,8.439 252.872,7.884 252.528 C 7.620 252.365,7.563 252.528,7.732 252.967 M247.775 254.900 L 246.600 256.200 247.900 255.025 C 249.112 253.930,249.384 253.600,249.075 253.600 C 249.006 253.600,248.421 254.185,247.775 254.900 M130.120 258.800 C 130.120 260.010,130.195 260.505,130.287 259.900 C 130.378 259.295,130.378 258.305,130.287 257.700 C 130.195 257.095,130.120 257.590,130.120 258.800 M9.606 259.500 C 9.603 259.995,9.780 260.400,10.000 260.400 C 10.501 260.400,10.501 259.976,10.000 259.200 C 9.686 258.715,9.611 258.772,9.606 259.500 M242.975 260.500 L 241.800 261.800 243.100 260.625 C 243.815 259.979,244.400 259.394,244.400 259.325 C 244.400 259.016,244.070 259.288,242.975 260.500 M130.501 263.800 C 130.505 264.680,130.587 264.993,130.683 264.495 C 130.779 263.998,130.775 263.278,130.675 262.895 C 130.575 262.513,130.496 262.920,130.501 263.800 M231.775 273.300 L 230.600 274.600 231.900 273.425 C 233.112 272.330,233.384 272.000,233.075 272.000 C 233.006 272.000,232.421 272.585,231.775 273.300 M81.693 275.600 C 81.693 276.370,81.775 276.685,81.876 276.300 C 81.976 275.915,81.976 275.285,81.876 274.900 C 81.775 274.515,81.693 274.830,81.693 275.600 M224.793 280.700 L 220.200 285.400 224.900 280.807 C 227.485 278.280,229.600 276.165,229.600 276.107 C 229.600 275.818,229.060 276.334,224.793 280.700 M81.301 281.000 C 81.305 281.880,81.387 282.193,81.483 281.695 C 81.579 281.198,81.575 280.478,81.475 280.095 C 81.375 279.713,81.296 280.120,81.301 281.000 M217.375 287.700 L 216.200 289.000 217.500 287.825 C 218.215 287.179,218.800 286.594,218.800 286.525 C 218.800 286.216,218.470 286.488,217.375 287.700 M141.200 289.325 C 141.200 289.394,141.785 289.979,142.500 290.625 L 143.800 291.800 142.625 290.500 C 141.530 289.288,141.200 289.016,141.200 289.325 M145.400 293.600 C 146.259 294.480,147.052 295.200,147.162 295.200 C 147.272 295.200,146.659 294.480,145.800 293.600 C 144.941 292.720,144.148 292.000,144.038 292.000 C 143.928 292.000,144.541 292.720,145.400 293.600 M156.800 301.400 C 157.350 301.714,157.980 301.972,158.200 301.972 C 158.420 301.972,158.150 301.714,157.600 301.400 C 157.050 301.086,156.420 300.828,156.200 300.828 C 155.980 300.828,156.250 301.086,156.800 301.400 M52.214 333.700 C 52.811 334.415,53.592 335.168,53.950 335.374 C 54.307 335.579,53.888 334.994,53.018 334.074 C 51.134 332.082,50.691 331.876,52.214 333.700 M69.687 350.791 C 69.965 351.236,70.329 351.600,70.496 351.600 C 71.074 351.600,70.797 350.991,69.991 350.487 C 69.241 350.019,69.219 350.041,69.687 350.791 M110.000 377.953 C 110.000 378.148,110.492 378.401,111.092 378.516 C 112.114 378.711,112.135 378.688,111.416 378.162 C 110.537 377.519,110.000 377.440,110.000 377.953 M125.200 384.791 C 125.200 384.965,125.645 385.192,126.188 385.296 C 126.731 385.399,127.094 385.352,126.994 385.190 C 126.728 384.760,125.200 384.420,125.200 384.791 M129.776 386.620 C 130.636 387.262,131.368 387.396,131.030 386.848 C 130.910 386.655,130.405 386.394,129.906 386.268 C 129.032 386.048,129.027 386.060,129.776 386.620 M270.300 386.276 C 269.915 386.376,269.600 386.625,269.600 386.829 C 269.600 387.394,270.243 387.272,270.800 386.600 C 271.074 386.270,271.231 386.021,271.149 386.046 C 271.067 386.072,270.685 386.175,270.300 386.276 M265.776 388.187 C 265.349 388.510,265.180 388.775,265.400 388.775 C 265.620 388.775,266.149 388.510,266.576 388.187 C 267.004 387.864,267.173 387.600,266.953 387.600 C 266.733 387.600,266.204 387.864,265.776 388.187 M150.800 393.269 C 150.800 393.451,151.145 393.600,151.567 393.600 C 151.989 393.600,152.649 393.721,153.033 393.868 C 153.474 394.037,153.635 393.980,153.471 393.714 C 153.152 393.199,150.800 392.807,150.800 393.269 M157.352 394.877 C 157.242 395.055,157.689 395.200,158.344 395.200 C 158.999 395.200,159.849 395.321,160.233 395.468 C 160.675 395.638,160.835 395.581,160.669 395.312 C 160.346 394.790,157.627 394.433,157.352 394.877 M240.200 395.200 C 239.908 395.673,240.299 395.673,241.400 395.200 C 242.171 394.869,242.169 394.855,241.324 394.828 C 240.842 394.813,240.336 394.980,240.200 395.200 M168.600 396.800 C 168.736 397.020,169.117 397.200,169.447 397.200 C 169.777 397.200,169.936 397.020,169.800 396.800 C 169.664 396.580,169.283 396.400,168.953 396.400 C 168.623 396.400,168.464 396.580,168.600 396.800 M231.000 396.800 C 231.136 397.020,231.517 397.200,231.847 397.200 C 232.177 397.200,232.336 397.020,232.200 396.800 C 232.064 396.580,231.683 396.400,231.353 396.400 C 231.023 396.400,230.864 396.580,231.000 396.800 M180.600 398.400 C 180.455 398.634,180.870 398.800,181.600 398.800 C 182.330 398.800,182.745 398.634,182.600 398.400 C 182.464 398.180,182.014 398.000,181.600 398.000 C 181.186 398.000,180.736 398.180,180.600 398.400 M218.000 398.400 C 218.000 398.620,218.360 398.800,218.800 398.800 C 219.240 398.800,219.600 398.620,219.600 398.400 C 219.600 398.180,219.240 398.000,218.800 398.000 C 218.360 398.000,218.000 398.180,218.000 398.400 M187.500 399.082 C 187.995 399.178,188.805 399.178,189.300 399.082 C 189.795 398.987,189.390 398.909,188.400 398.909 C 187.410 398.909,187.005 398.987,187.500 399.082 M211.105 399.083 C 211.602 399.179,212.322 399.175,212.705 399.075 C 213.087 398.975,212.680 398.896,211.800 398.901 C 210.920 398.905,210.607 398.987,211.105 399.083 " stroke="none" fill="#a4a4a4" fill-rule="evenodd"></path><path id="path3" d="M72.629 46.209 C 72.205 46.529,71.935 46.868,72.029 46.961 C 72.123 47.055,72.625 46.787,73.144 46.366 C 74.238 45.479,73.779 45.339,72.629 46.209 M62.039 55.810 C 60.173 57.730,60.624 57.840,62.548 55.934 C 63.400 55.090,63.940 54.402,63.748 54.404 C 63.557 54.407,62.787 55.039,62.039 55.810 M58.800 59.077 C 57.931 59.989,57.755 60.304,58.337 59.909 C 59.147 59.359,60.669 57.592,60.323 57.604 C 60.255 57.607,59.570 58.269,58.800 59.077 M55.639 62.210 C 54.890 62.980,54.350 63.681,54.439 63.768 C 54.527 63.854,55.272 63.222,56.094 62.362 C 56.915 61.503,57.455 60.802,57.294 60.804 C 57.132 60.807,56.387 61.439,55.639 62.210 M50.177 68.167 C 49.750 68.479,49.507 68.840,49.636 68.970 C 49.766 69.099,50.198 68.844,50.598 68.402 C 51.448 67.463,51.273 67.366,50.177 68.167 M39.669 81.239 C 38.928 82.424,39.257 82.513,40.119 81.361 C 40.514 80.832,40.692 80.400,40.515 80.400 C 40.338 80.400,39.957 80.778,39.669 81.239 M173.900 93.895 C 175.055 93.976,176.945 93.976,178.100 93.895 C 179.255 93.814,178.310 93.748,176.000 93.748 C 173.690 93.748,172.745 93.814,173.900 93.895 M30.111 95.700 C 29.329 96.711,29.063 97.332,29.536 97.040 C 30.010 96.747,30.957 95.200,30.663 95.200 C 30.572 95.200,30.324 95.425,30.111 95.700 M224.200 118.000 C 225.950 119.760,227.471 121.200,227.581 121.200 C 227.691 121.200,226.350 119.760,224.600 118.000 C 222.850 116.240,221.329 114.800,221.219 114.800 C 221.109 114.800,222.450 116.240,224.200 118.000 M81.309 116.800 C 81.309 117.790,81.387 118.195,81.482 117.700 C 81.578 117.205,81.578 116.395,81.482 115.900 C 81.387 115.405,81.309 115.810,81.309 116.800 M81.701 121.800 C 81.705 122.680,81.787 122.993,81.883 122.495 C 81.979 121.998,81.975 121.278,81.875 120.895 C 81.775 120.513,81.696 120.920,81.701 121.800 M232.400 126.600 C 233.146 127.370,233.847 128.000,233.957 128.000 C 234.067 128.000,233.546 127.370,232.800 126.600 C 232.054 125.830,231.353 125.200,231.243 125.200 C 231.133 125.200,231.654 125.830,232.400 126.600 M12.800 131.167 C 12.800 131.369,12.679 131.849,12.532 132.233 C 12.364 132.672,12.420 132.835,12.684 132.672 C 13.237 132.330,13.628 130.800,13.163 130.800 C 12.963 130.800,12.800 130.965,12.800 131.167 M11.179 136.255 C 10.958 136.836,10.852 137.385,10.943 137.476 C 11.033 137.567,11.299 137.092,11.533 136.420 C 12.053 134.928,11.739 134.782,11.179 136.255 M9.595 140.500 C 9.592 140.775,9.475 141.450,9.335 142.000 C 8.974 143.426,9.552 142.761,9.984 141.254 C 10.204 140.490,10.199 140.000,9.972 140.000 C 9.767 140.000,9.598 140.225,9.595 140.500 M6.222 153.300 C 6.138 153.575,5.967 154.430,5.841 155.200 C 5.558 156.945,6.187 155.946,6.535 154.100 C 6.770 152.853,6.539 152.263,6.222 153.300 M260.600 158.400 C 262.128 159.940,263.469 161.200,263.579 161.200 C 263.689 161.200,262.528 159.940,261.000 158.400 C 259.472 156.860,258.131 155.600,258.021 155.600 C 257.911 155.600,259.072 156.860,260.600 158.400 M4.400 161.150 C 4.400 161.563,4.305 162.508,4.189 163.250 C 4.036 164.234,4.074 164.383,4.329 163.800 C 4.929 162.430,5.204 160.400,4.790 160.400 C 4.575 160.400,4.400 160.738,4.400 161.150 M269.183 166.900 C 270.164 167.945,271.019 168.800,271.083 168.800 C 271.384 168.800,271.066 168.441,269.300 166.783 L 267.400 165.000 269.183 166.900 M3.041 169.643 C 2.743 170.575,2.323 175.411,2.560 175.173 C 2.854 174.879,3.613 169.479,3.391 169.258 C 3.296 169.163,3.139 169.336,3.041 169.643 M100.000 171.710 C 100.000 171.771,101.395 173.166,103.100 174.810 L 106.200 177.800 103.210 174.700 C 100.433 171.821,100.000 171.417,100.000 171.710 M1.059 190.100 C 0.734 192.806,0.789 207.192,1.135 209.800 C 1.281 210.900,1.400 206.445,1.400 199.900 C 1.400 193.355,1.380 188.000,1.356 188.000 C 1.331 188.000,1.198 188.945,1.059 190.100 M160.500 196.287 C 161.105 196.378,162.095 196.378,162.700 196.287 C 163.305 196.195,162.810 196.120,161.600 196.120 C 160.390 196.120,159.895 196.195,160.500 196.287 M166.910 203.094 C 168.167 203.193,168.727 203.395,168.548 203.684 C 168.385 203.948,168.460 204.010,168.738 203.838 C 169.764 203.204,169.086 202.804,167.100 202.872 L 165.000 202.944 166.910 203.094 M159.100 203.482 C 159.595 203.578,160.405 203.578,160.900 203.482 C 161.395 203.387,160.990 203.309,160.000 203.309 C 159.010 203.309,158.605 203.387,159.100 203.482 M102.786 225.100 L 100.600 227.400 102.900 225.214 C 105.037 223.182,105.383 222.800,105.086 222.800 C 105.024 222.800,103.989 223.835,102.786 225.100 M2.474 225.000 C 2.464 225.880,2.611 226.960,2.800 227.400 L 3.144 228.200 3.149 227.400 C 3.152 226.960,3.005 225.880,2.823 225.000 L 2.492 223.400 2.474 225.000 M271.978 229.900 L 270.600 231.400 272.100 230.022 C 273.496 228.738,273.784 228.400,273.478 228.400 C 273.412 228.400,272.737 229.075,271.978 229.900 M264.987 236.500 L 262.600 239.000 265.100 236.613 C 266.475 235.299,267.600 234.174,267.600 234.113 C 267.600 233.817,267.205 234.178,264.987 236.500 M4.080 235.200 C 4.080 235.750,4.224 236.650,4.400 237.200 L 4.720 238.200 4.720 237.200 C 4.720 236.650,4.576 235.750,4.400 235.200 L 4.080 234.200 4.080 235.200 M73.395 262.367 C 73.399 283.150,73.475 286.154,74.000 286.297 C 74.441 286.417,74.468 286.368,74.103 286.109 C 73.719 285.837,73.582 280.403,73.498 262.178 L 73.390 238.600 73.395 262.367 M257.781 244.100 L 256.200 245.800 257.900 244.219 C 259.481 242.748,259.784 242.400,259.481 242.400 C 259.416 242.400,258.651 243.165,257.781 244.100 M5.813 244.200 C 5.969 245.080,6.241 245.957,6.417 246.148 C 6.593 246.340,6.561 245.715,6.346 244.760 C 5.845 242.527,5.440 242.103,5.813 244.200 M7.448 250.600 C 7.591 251.260,7.866 252.070,8.059 252.400 C 8.284 252.784,8.318 252.568,8.152 251.800 C 8.009 251.140,7.734 250.330,7.541 250.000 C 7.316 249.616,7.282 249.832,7.448 250.600 M9.048 256.200 C 9.191 256.860,9.466 257.670,9.659 258.000 C 9.884 258.384,9.918 258.168,9.752 257.400 C 9.609 256.740,9.334 255.930,9.141 255.600 C 8.916 255.216,8.882 255.432,9.048 256.200 M231.375 274.100 L 230.200 275.400 231.500 274.225 C 232.215 273.579,232.800 272.994,232.800 272.925 C 232.800 272.616,232.470 272.888,231.375 274.100 M81.709 280.000 C 81.709 280.990,81.787 281.395,81.882 280.900 C 81.978 280.405,81.978 279.595,81.882 279.100 C 81.787 278.605,81.709 279.010,81.709 280.000 M224.191 281.700 L 221.000 285.000 224.300 281.809 C 227.365 278.846,227.782 278.400,227.491 278.400 C 227.430 278.400,225.945 279.885,224.191 281.700 M17.468 279.506 C 17.594 280.005,17.855 280.510,18.048 280.630 C 18.596 280.968,18.462 280.236,17.820 279.376 C 17.260 278.627,17.248 278.632,17.468 279.506 M18.828 282.200 C 18.828 282.420,19.086 283.050,19.400 283.600 C 19.714 284.150,19.972 284.420,19.972 284.200 C 19.972 283.980,19.714 283.350,19.400 282.800 C 19.086 282.250,18.828 281.980,18.828 282.200 M144.000 292.600 C 145.195 293.810,146.263 294.800,146.373 294.800 C 146.483 294.800,145.595 293.810,144.400 292.600 C 143.205 291.390,142.137 290.400,142.027 290.400 C 141.917 290.400,142.805 291.390,144.000 292.600 M25.962 296.729 C 26.205 297.184,26.601 297.677,26.842 297.826 C 27.156 298.020,27.154 297.862,26.838 297.271 C 26.595 296.816,26.199 296.323,25.958 296.174 C 25.644 295.980,25.646 296.138,25.962 296.729 M43.983 323.500 C 44.726 324.435,45.406 325.200,45.494 325.200 C 45.777 325.200,44.063 322.949,43.335 322.364 C 42.948 322.054,43.240 322.565,43.983 323.500 M52.383 333.300 C 53.364 334.345,54.219 335.200,54.283 335.200 C 54.584 335.200,54.266 334.841,52.500 333.183 L 50.600 331.400 52.383 333.300 M344.047 337.676 C 343.361 338.378,342.800 339.128,342.800 339.343 C 342.800 339.558,342.845 339.656,342.900 339.562 C 342.955 339.468,343.620 338.718,344.378 337.896 C 346.057 336.074,345.788 335.895,344.047 337.676 M59.200 340.600 C 61.060 342.470,62.672 344.000,62.782 344.000 C 62.892 344.000,61.460 342.470,59.600 340.600 C 57.740 338.730,56.128 337.200,56.018 337.200 C 55.908 337.200,57.340 338.730,59.200 340.600 M336.300 345.214 C 335.006 346.625,334.832 347.257,336.037 346.166 C 336.781 345.493,337.811 343.988,337.514 344.008 C 337.451 344.012,336.905 344.555,336.300 345.214 M66.383 347.300 C 67.364 348.345,68.219 349.200,68.283 349.200 C 68.584 349.200,68.266 348.841,66.500 347.183 L 64.600 345.400 66.383 347.300 M83.200 360.946 C 83.200 361.056,83.740 361.530,84.400 362.000 C 85.060 362.470,85.600 362.764,85.600 362.654 C 85.600 362.544,85.060 362.070,84.400 361.600 C 83.740 361.130,83.200 360.836,83.200 360.946 M127.600 385.400 C 128.150 385.714,128.780 385.972,129.000 385.972 C 129.220 385.972,128.950 385.714,128.400 385.400 C 127.850 385.086,127.220 384.828,127.000 384.828 C 126.780 384.828,127.050 385.086,127.600 385.400 M263.700 388.412 C 263.205 388.611,262.800 388.845,262.800 388.932 C 262.800 389.228,264.811 388.705,265.030 388.352 C 265.297 387.919,264.880 387.938,263.700 388.412 M136.800 388.800 C 137.130 389.013,137.670 389.188,138.000 389.188 C 138.533 389.188,138.533 389.145,138.000 388.800 C 137.670 388.587,137.130 388.412,136.800 388.412 C 136.267 388.412,136.267 388.455,136.800 388.800 M258.600 390.221 L 257.400 390.767 258.600 390.527 C 259.887 390.270,260.231 390.096,259.967 389.837 C 259.875 389.747,259.260 389.920,258.600 390.221 M253.256 391.659 C 252.517 391.872,251.977 392.104,252.056 392.175 C 252.356 392.446,254.800 391.893,254.800 391.555 C 254.800 391.360,254.755 391.216,254.700 391.236 C 254.645 391.256,253.995 391.446,253.256 391.659 M153.852 393.583 C 154.236 393.936,157.528 394.601,157.189 394.258 C 157.072 394.140,156.196 393.868,155.240 393.654 C 154.285 393.439,153.660 393.407,153.852 393.583 M245.800 393.600 L 245.000 393.944 245.800 393.966 C 246.240 393.978,246.870 393.813,247.200 393.600 C 247.995 393.086,246.996 393.086,245.800 393.600 M161.013 395.146 C 161.226 395.344,162.300 395.611,163.400 395.739 C 164.642 395.883,165.021 395.850,164.400 395.651 C 162.560 395.063,160.611 394.772,161.013 395.146 M238.000 395.200 L 237.000 395.520 238.000 395.554 C 238.550 395.573,239.270 395.413,239.600 395.200 C 240.364 394.706,239.542 394.706,238.000 395.200 M170.400 396.773 C 170.730 396.949,172.080 397.194,173.400 397.318 C 175.004 397.468,175.402 397.433,174.600 397.212 C 172.839 396.727,169.699 396.398,170.400 396.773 M227.626 396.854 C 226.430 397.052,225.351 397.315,225.228 397.438 C 224.855 397.811,230.172 397.129,230.580 396.751 C 231.025 396.340,230.644 396.353,227.626 396.854 M215.600 398.400 C 214.805 398.914,215.804 398.914,217.000 398.400 L 217.800 398.056 217.000 398.034 C 216.560 398.022,215.930 398.187,215.600 398.400 M189.000 398.793 C 191.901 399.112,201.860 399.315,201.567 399.049 C 201.475 398.966,197.980 398.805,193.800 398.692 C 189.307 398.569,187.345 398.611,189.000 398.793 M205.800 398.800 L 203.400 399.066 205.800 399.093 C 207.120 399.108,209.730 398.986,211.600 398.822 L 215.000 398.524 211.600 398.529 C 209.730 398.532,207.120 398.654,205.800 398.800 " stroke="none" fill="#7e7e7e" fill-rule="evenodd"></path><path id="path4" d="M16.301 121.805 C 16.073 123.000,16.227 123.070,16.787 122.024 C 17.022 121.585,17.048 121.153,16.847 121.029 C 16.651 120.908,16.406 121.257,16.301 121.805 M73.393 196.800 C 73.393 220.010,73.441 229.505,73.500 217.900 C 73.559 206.295,73.559 187.305,73.500 175.700 C 73.441 164.095,73.393 173.590,73.393 196.800 M1.356 182.571 C 1.235 182.885,1.204 183.560,1.286 184.071 C 1.395 184.754,1.488 184.604,1.637 183.500 C 1.847 181.947,1.736 181.581,1.356 182.571 M1.293 186.800 C 1.293 187.570,1.375 187.885,1.476 187.500 C 1.576 187.115,1.576 186.485,1.476 186.100 C 1.375 185.715,1.293 186.030,1.293 186.800 M248.229 393.180 C 247.552 393.426,247.538 393.491,248.116 393.713 C 248.478 393.851,248.888 393.781,249.027 393.556 C 249.384 392.978,249.124 392.856,248.229 393.180 M182.631 398.450 C 182.750 398.642,183.677 398.800,184.690 398.800 C 185.704 398.800,186.458 398.734,186.367 398.653 C 185.990 398.321,182.432 398.128,182.631 398.450 " stroke="none" fill="#9c9c9c" fill-rule="evenodd"></path></g></svg>